<svg width="100%" height="100%" viewBox="0 0 20 20" fill="none" xmlns="http://www.w3.org/2000/svg">
<path d="M20 6.92308V13.0769C20 16.8944 16.8944 20 13.0769 20H6.92308C3.10564 20 0 16.8944 0 13.0769V6.92308C0 3.10564 3.10564 0 6.92308 0H13.0769C16.8944 0 20 3.10564 20 6.92308ZM18.4615 6.92308C18.4615 3.95385 16.0462 1.53846 13.0769 1.53846H6.92308C3.95385 1.53846 1.53846 3.95385 1.53846 6.92308V13.0769C1.53846 16.0462 3.95385 18.4615 6.92308 18.4615H13.0769C16.0462 18.4615 18.4615 16.0462 18.4615 13.0769V6.92308Z" fill="currentColor"/>
<path fill-rule="evenodd" clip-rule="evenodd" d="M7.17507 8.97412C6.46937 8.97412 5.89746 9.54607 5.89746 10.2515C5.89746 10.957 6.46937 11.5289 7.17507 11.5289C7.88046 11.5289 8.45238 10.957 8.45238 10.2515C8.45238 9.54607 7.88046 8.97412 7.17507 8.97412Z" fill="currentColor"/>
<path fill-rule="evenodd" clip-rule="evenodd" d="M13.3286 8.97412C12.6232 8.97412 12.0513 9.54607 12.0513 10.2515C12.0513 10.957 12.6232 11.5289 13.3286 11.5289C14.0343 11.5289 14.6062 10.957 14.6062 10.2515C14.6062 9.54607 14.0343 8.97412 13.3286 8.97412Z" fill="currentColor"/>
</svg>
