<svg width="100%" height="100%" viewBox="0 0 46 46" fill="none" xmlns="http://www.w3.org/2000/svg">
<rect width="100%" height="100%" rx="23" fill="url(#paint0_linear_23_7948)"/>
<path fill-rule="evenodd" clip-rule="evenodd" d="M29.2372 30.4276C29.2372 31.0035 29.0681 31.4683 28.7313 31.825C28.3944 32.1801 27.9255 32.3571 27.3247 32.3571H18.7041C18.152 32.3571 17.6922 32.1828 17.3253 31.8341C16.958 31.4842 16.7745 31.0153 16.7745 30.4276V19.3776L16.7745 17.2663H17.8141V22.0448H27.3247C27.8887 22.0448 28.3481 22.2151 28.7048 22.5506C29.0587 22.8888 29.2372 23.3576 29.2372 23.9572L29.2372 30.4276ZM33.7039 21.7502C33.4953 21.1017 33.2193 20.5285 32.8772 20.0319C32.5324 19.5366 32.1335 19.1127 31.6805 18.764C31.2275 18.414 30.7535 18.1287 30.2567 17.9095C29.7601 17.6889 29.2621 17.5264 28.7589 17.4221C28.2557 17.3178 27.7778 17.2663 27.3247 17.2663H16.7745V8.86621L11.9946 11.0732V30.4276C11.9946 31.2491 12.099 31.9873 12.3077 32.6425C12.5137 33.2975 12.795 33.8733 13.1437 34.3713C13.4924 34.8679 13.8939 35.2893 14.3469 35.6392C14.7999 35.988 15.2767 36.2732 15.7707 36.4939C16.2673 36.7143 16.7679 36.8767 17.2712 36.981C17.7716 37.0856 18.2498 37.1369 18.7041 37.1369H27.3248C28.1448 37.1369 28.8818 37.0327 29.5315 36.8241C30.1801 36.6152 30.7535 36.3367 31.25 35.988C31.7465 35.6392 32.1679 35.2376 32.5191 34.7849C32.8678 34.3303 33.1518 33.8548 33.3737 33.3595C33.593 32.863 33.7553 32.3637 33.8596 31.8605C33.9642 31.3601 34.0168 30.8818 34.0168 30.4276V23.9572C34.0168 23.1357 33.9125 22.4013 33.7039 21.7502Z" fill="black"/>
<path fill-rule="evenodd" clip-rule="evenodd" d="M21.0245 25.7676C20.3364 25.7676 19.7788 26.3252 19.7788 27.0131C19.7788 27.7009 20.3364 28.2585 21.0245 28.2585C21.7122 28.2585 22.2699 27.7009 22.2699 27.0131C22.2699 26.3252 21.7122 25.7676 21.0245 25.7676Z" fill="black"/>
<path fill-rule="evenodd" clip-rule="evenodd" d="M25.0725 25.7676C24.3848 25.7676 23.8271 26.3252 23.8271 27.0131C23.8271 27.7009 24.3848 28.2585 25.0725 28.2585C25.7606 28.2585 26.3182 27.7009 26.3182 27.0131C26.3182 26.3252 25.7606 25.7676 25.0725 25.7676Z" fill="black"/>
<defs>
<linearGradient id="paint0_linear_23_7948" x1="9.49213e-07" y1="45.9971" x2="20.6056" y2="8.33485" gradientUnits="userSpaceOnUse">
<stop stop-color="#1ED760"/>
<stop offset="1" stop-color="#00FF5B"/>
</linearGradient>
</defs>
</svg>
