<svg width="100%" height="100%" viewBox="0 0 24 24" fill="none" xmlns="http://www.w3.org/2000/svg">
<path d="M16.9995 2.75H6.99951C4.38051 2.75 2.24951 4.881 2.24951 7.5V20.5C2.24951 20.803 2.43252 21.077 2.71252 21.193C2.80552 21.232 2.90251 21.25 2.99951 21.25C3.19451 21.25 3.38651 21.174 3.52951 21.03L5.94351 18.616C6.17951 18.38 6.49351 18.25 6.82751 18.25H16.9995C19.6185 18.25 21.7495 16.119 21.7495 13.5V7.5C21.7495 4.881 19.6185 2.75 16.9995 2.75ZM20.2495 13.5C20.2495 15.292 18.7915 16.75 16.9995 16.75H6.82852C6.09352 16.75 5.40351 17.036 4.88351 17.556L3.74951 18.6899V7.5C3.74951 5.708 5.20751 4.25 6.99951 4.25H16.9995C18.7915 4.25 20.2495 5.708 20.2495 7.5V13.5Z" fill="currentColor"/>
</svg>
