<svg width="100%" height="100%" viewBox="0 0 27 27" fill="none" xmlns="http://www.w3.org/2000/svg">
<path d="M23.9404 7.1999L13.2079 17.9323C12.1391 19.0011 8.96659 19.4961 8.25784 18.7873C7.54909 18.0786 8.03284 14.9061 9.10159 13.8373L19.8454 3.09362C20.1103 2.80456 20.4311 2.57221 20.7884 2.41054C21.1455 2.24888 21.5319 2.16124 21.9239 2.15299C22.3159 2.14474 22.7056 2.216 23.0693 2.36248C23.433 2.50897 23.7633 2.72767 24.0402 3.00532C24.317 3.28297 24.5348 3.61383 24.6803 3.97795C24.8258 4.34208 24.8961 4.73189 24.8867 5.1239C24.8774 5.5159 24.7886 5.90199 24.6261 6.25879C24.4634 6.61558 24.2302 6.93574 23.9404 7.1999Z" stroke="currentColor" stroke-width="1.6875" stroke-linecap="round" stroke-linejoin="round"/>
<path d="M12.375 4.5H6.75C5.55652 4.5 4.412 4.9741 3.56808 5.81802C2.72418 6.66193 2.25 7.80652 2.25 9V20.25C2.25 21.4435 2.72418 22.5881 3.56808 23.4319C4.412 24.2759 5.55652 24.75 6.75 24.75H19.125C21.6113 24.75 22.5 22.725 22.5 20.25V14.625" stroke="currentColor" stroke-width="1.6875" stroke-linecap="round" stroke-linejoin="round"/>
</svg>
