<svg width="100%" height="100%" viewBox="0 0 20 20" fill="none" xmlns="http://www.w3.org/2000/svg">
<path d="M19.8962 8.11146C19.6418 7.32061 18.9701 6.7558 18.1424 6.63666L13.8553 6.02244L11.9405 2.19346C11.5723 1.45704 10.8297 1 10 1C9.17029 1 8.42774 1.45704 8.05954 2.19346L6.14471 6.02244L1.85763 6.63766C1.02995 6.75578 0.358179 7.32163 0.103825 8.11146C-0.147451 8.89307 0.0648437 9.73536 0.659703 10.3064L3.75503 13.2828L3.02478 17.4836C2.88427 18.2888 3.20837 19.09 3.8699 19.5759C4.25348 19.8573 4.7027 20 5.15602 20C5.49858 20 5.84317 19.9179 6.16214 19.7525L9.99898 17.7619L13.8358 19.7525C14.5784 20.1366 15.4563 20.0689 16.1291 19.5759C16.7906 19.09 17.1147 18.2888 16.9742 17.4836L16.244 13.2828L19.3393 10.3064C19.9352 9.73433 20.1475 8.89307 19.8962 8.11146ZM18.2747 9.19509L14.884 12.4561C14.6994 12.6338 14.6153 12.8915 14.6594 13.1432L15.4594 17.7486C15.5168 18.0763 15.3107 18.2662 15.2204 18.333C15.1445 18.3874 14.8727 18.5549 14.5445 18.3844L10.3539 16.21C10.1313 16.095 9.8677 16.095 9.64617 16.21L5.45549 18.3844C5.12832 18.5559 4.85551 18.3885 4.77961 18.333C4.68936 18.2662 4.48321 18.0763 4.54064 17.7476L5.34062 13.1432C5.38473 12.8905 5.2996 12.6328 5.11602 12.4561L1.72532 9.19509C1.48123 8.95988 1.53352 8.68879 1.56839 8.583C1.60428 8.4731 1.72428 8.21219 2.07606 8.16186L6.76112 7.4901C7.01034 7.45415 7.22674 7.29805 7.33956 7.07209L9.4349 2.88265C9.58977 2.57247 9.88206 2.53962 10 2.53962C10.118 2.53962 10.4092 2.57247 10.5651 2.88265L12.6605 7.07209C12.7733 7.29805 12.9897 7.45415 13.2389 7.4901L17.924 8.16086C18.2757 8.21118 18.3957 8.47197 18.4316 8.58187C18.4655 8.68869 18.5188 8.95988 18.2747 9.19509Z" fill="currentColor"/>
</svg>
