<svg width="100%" height="100%" viewBox="0 0 20 20" fill="none" xmlns="http://www.w3.org/2000/svg">
<path d="M9.10134 14.6715C9.17058 14.6716 9.23913 14.6864 9.30306 14.7151C9.36699 14.7438 9.42506 14.7859 9.47395 14.8388C9.52284 14.8917 9.5616 14.9545 9.588 15.0236C9.61441 15.0927 9.62795 15.1667 9.62785 15.2415C9.62775 15.3162 9.61402 15.3902 9.58743 15.4592C9.56084 15.5282 9.52192 15.5909 9.47289 15.6437C9.42386 15.6965 9.36568 15.7383 9.30167 15.7668C9.23766 15.7953 9.16908 15.8099 9.09984 15.8098C8.96 15.8096 8.82597 15.7495 8.72723 15.6426C8.62849 15.5357 8.57313 15.3908 8.57333 15.2399C8.57353 15.0889 8.62927 14.9442 8.72829 14.8376C8.82732 14.731 8.9615 14.6713 9.10134 14.6715ZM17.3695 11.152C17.3002 11.152 17.2317 11.1372 17.1677 11.1086C17.1038 11.0799 17.0457 11.0379 16.9968 10.985C16.9478 10.9321 16.909 10.8694 16.8826 10.8003C16.8561 10.7312 16.8425 10.6572 16.8426 10.5825C16.8426 10.5077 16.8563 10.4337 16.8829 10.3647C16.9094 10.2956 16.9483 10.2329 16.9973 10.1801C17.0463 10.1273 17.1044 10.0854 17.1684 10.0569C17.2324 10.0283 17.301 10.0136 17.3702 10.0137C17.5101 10.0138 17.6441 10.0739 17.7429 10.1807C17.8418 10.2875 17.8972 10.4323 17.8971 10.5833C17.897 10.7342 17.8414 10.8789 17.7424 10.9856C17.6435 11.0923 17.5093 11.1521 17.3695 11.152ZM17.3695 8.82353C16.9372 8.82396 16.5227 9.00954 16.217 9.33954C15.9113 9.66953 15.7393 10.117 15.7389 10.5837C15.7389 10.7723 15.7682 10.9601 15.8252 11.1431L10.4394 14.2383C10.29 14.0043 10.0902 13.8129 9.8571 13.6807C9.624 13.5486 9.36463 13.4796 9.10134 13.4797C8.47958 13.4797 7.91332 13.8643 7.63882 14.4642L2.80049 11.7099C2.28898 11.42 1.90648 10.5116 1.94698 9.68417C1.96798 9.25264 2.10598 8.91745 2.31673 8.78791C2.45023 8.70694 2.61074 8.71342 2.78174 8.80977L2.81324 8.82839C4.09576 9.55706 8.29133 11.943 8.46833 12.0313C8.74059 12.1681 8.89209 12.2232 9.3571 11.9851L18.0302 7.11602C18.1577 7.0642 18.3062 6.93223 18.3062 6.73225C18.3062 6.45536 18.0407 6.34606 18.04 6.34606C17.5465 6.09102 16.7882 5.70807 16.0487 5.33402C14.4677 4.53491 12.6759 3.62974 11.8891 3.18445C11.2096 2.80068 10.6629 3.12453 10.5654 3.18931L10.3764 3.29051C6.83481 5.181 2.09473 7.71515 1.82472 7.89245C1.34247 8.20983 1.04321 8.84215 1.00421 9.62669C0.944211 10.8711 1.53147 12.1689 2.37223 12.6442L7.48882 15.4925C7.54518 15.9109 7.73911 16.2934 8.03518 16.5702C8.33124 16.847 8.70968 16.9995 9.10134 17C9.5291 16.9992 9.93948 16.8173 10.2443 16.4933C10.549 16.1693 10.7238 15.7291 10.7311 15.2674L16.3667 11.9698C16.6517 12.211 17.0065 12.343 17.3695 12.343C17.8018 12.3426 18.2163 12.157 18.522 11.827C18.8277 11.497 18.9996 11.0495 19 10.5829C18.9996 10.1162 18.8277 9.66872 18.522 9.33873C18.2163 9.00873 17.8018 8.82315 17.3695 8.82272" fill="currentColor"/>
</svg>
