<svg width="100%" height="100%" viewBox="0 0 34 34" fill="none" xmlns="http://www.w3.org/2000/svg">
<path d="M30.0163 12.3992C28.3106 7.53291 24.0819 4.05796 18.9777 3.32554C17.6984 3.14279 16.303 3.14279 15.0223 3.32554C9.91951 4.05654 5.68934 7.533 3.98792 12.3879C3.45667 13.8556 3.1875 15.4068 3.1875 16.9992C3.1875 18.5915 3.45668 20.1427 3.98368 21.6004C5.68935 26.4667 9.91809 29.9418 15.0223 30.6742C15.6669 30.7649 16.3328 30.8117 17 30.8117C17.6672 30.8117 18.3317 30.7649 18.9777 30.6728C24.0805 29.9418 28.3107 26.4653 30.0121 21.6104C30.5433 20.1428 30.8125 18.5915 30.8125 16.9992C30.8125 15.4068 30.5433 13.8569 30.0163 12.3992ZM27.404 11.6894H23.0931C22.6511 9.72311 21.9781 7.83465 21.0488 6.0539C23.7943 7.06399 26.0709 9.05302 27.404 11.6894ZM28.6875 17.0006C28.6875 18.0928 28.5303 19.1595 28.2328 20.1894H23.4827C23.6286 19.1326 23.7292 18.0687 23.7292 17.0006C23.7292 15.931 23.63 14.867 23.4841 13.8144H28.2342C28.5302 14.8401 28.6875 15.9069 28.6875 17.0006ZM12.6621 20.1894C12.5007 19.1354 12.3958 18.0701 12.3958 17.0006C12.3958 15.9338 12.5007 14.8699 12.6621 13.8144H21.3392C21.4993 14.867 21.6042 15.931 21.6042 17.0006C21.6042 18.0687 21.4993 19.134 21.3378 20.1894H12.6621ZM5.76723 20.1894C5.47114 19.1624 5.3125 18.0942 5.3125 17.0006C5.3125 15.9097 5.46973 14.8444 5.76723 13.8144H10.5173C10.3714 14.8684 10.2708 15.9324 10.2708 17.0006C10.2708 18.0701 10.3714 19.1354 10.5173 20.1894H5.76723ZM18.2027 5.39658C19.4522 7.3445 20.3561 9.45532 20.9114 11.6908H13.0871C13.6425 9.45957 14.5449 7.34889 15.7973 5.39814C16.1939 5.35847 16.5892 5.31444 17 5.31444C17.4108 5.31302 17.8061 5.35692 18.2027 5.39658ZM12.9497 6.05546C12.019 7.83763 11.3461 9.72732 10.9055 11.6908H6.59601C7.92767 9.05441 10.2028 7.06554 12.9497 6.05546ZM6.59739 22.3144H10.9069C11.3489 24.2794 12.0218 26.1663 12.9497 27.9457C10.2057 26.9356 7.93189 24.9509 6.59739 22.3144ZM15.7973 28.6045C14.5478 26.6566 13.6454 24.5485 13.0886 22.3158H20.9114C20.3561 24.5457 19.4536 26.6552 18.2041 28.6045C17.4065 28.6839 16.5934 28.6839 15.7973 28.6045ZM21.0503 27.9457C21.9796 26.1649 22.6525 24.2779 23.0931 22.3144H27.4026C26.0709 24.948 23.7958 26.9356 21.0503 27.9457Z" fill="currentColor"/>
</svg>
