<svg width="100%" height="100%" viewBox="0 0 20 22" fill="none" xmlns="http://www.w3.org/2000/svg">
<path fill-rule="evenodd" clip-rule="evenodd" d="M6.67763 8.71345H3.03211C2.4972 8.70905 1.98243 8.91732 1.60106 9.29241C1.21968 9.66751 1.00294 10.1787 0.998535 10.7136V18.2836C1.00843 19.397 1.91871 20.2918 3.03211 20.2825H6.67763C7.21251 20.287 7.72733 20.0787 8.10872 19.7036C8.49011 19.3285 8.70684 18.8173 8.71121 18.2823V10.7136C8.70684 10.1787 8.49011 9.66751 8.10872 9.29241C7.72733 8.91732 7.21251 8.70905 6.67763 8.71345Z" stroke="currentColor" stroke-width="1.60681" stroke-linecap="round" stroke-linejoin="round"/>
<path fill-rule="evenodd" clip-rule="evenodd" d="M6.67763 1.00078H3.03211C1.9411 0.970517 1.03143 1.82901 0.998535 2.91995V4.22339C1.03143 5.31433 1.9411 6.17283 3.03211 6.14256H6.67763C7.76859 6.17283 8.6783 5.31433 8.71121 4.22339V2.91995C8.6783 1.82901 7.76859 0.970517 6.67763 1.00078Z" stroke="currentColor" stroke-width="1.60681" stroke-linecap="round" stroke-linejoin="round"/>
<path fill-rule="evenodd" clip-rule="evenodd" d="M13.3212 12.5701H16.9654C17.5005 12.5749 18.0156 12.3667 18.3973 11.9917C18.7789 11.6164 18.9959 11.1051 19.0003 10.57V3.0012C18.9959 2.4663 18.7792 1.95505 18.3978 1.57995C18.0164 1.20484 17.5016 0.996599 16.9667 1.00105H13.3212C12.7863 0.996599 12.2715 1.20484 11.8901 1.57995C11.5087 1.95505 11.292 2.4663 11.2876 3.0012V10.57C11.292 11.1048 11.5087 11.616 11.8901 11.9911C12.2715 12.3662 12.7863 12.5745 13.3212 12.5701Z" stroke="currentColor" stroke-width="1.60681" stroke-linecap="round" stroke-linejoin="round"/>
<path fill-rule="evenodd" clip-rule="evenodd" d="M13.3212 20.2822H16.9654C18.0569 20.3132 18.9674 19.4545 19.0003 18.363V17.0596C18.9674 15.9686 18.0577 15.1102 16.9667 15.1404H13.3212C12.2302 15.1102 11.3205 15.9686 11.2876 17.0596V18.3617C11.3197 19.4532 12.2297 20.3124 13.3212 20.2822Z" stroke="currentColor" stroke-width="1.60681" stroke-linecap="round" stroke-linejoin="round"/>
</svg>
