<svg width="100%" height="100%" viewBox="0 0 20 20" fill="none" xmlns="http://www.w3.org/2000/svg">
<path d="M17.978 5.31544L12.978 1.29403C11.252 -0.093452 8.748 -0.093452 7.022 1.29403L2.022 5.31544C0.896003 6.22075 0.25 7.5682 0.25 9.0127V15.0068C0.25 17.6237 2.381 19.7534 5 19.7534H7.75V15.0068C7.75 13.7684 8.759 12.76 10 12.76C11.241 12.76 12.25 13.7684 12.25 15.0068V19.7534H15C17.619 19.7534 19.75 17.6247 19.75 15.0068V9.0127C19.75 7.5682 19.104 6.22075 17.978 5.31544ZM18.25 15.0068C18.25 16.7964 16.792 18.2529 15 18.2529H13.75V15.0068C13.75 12.9411 12.068 11.2594 10 11.2594C7.932 11.2594 6.25 12.9411 6.25 15.0068V18.2529H5C3.208 18.2529 1.75 16.7964 1.75 15.0068V9.0127C1.75 8.02536 2.191 7.10406 2.961 6.48485L7.961 2.46344C9.143 1.51411 10.857 1.51411 12.038 2.46344L17.038 6.48485C17.808 7.10406 18.249 8.02536 18.249 9.0127V15.0068H18.25Z" fill="currentColor"/>
</svg>
