<svg width="100%" height="100%" viewBox="0 0 20 20" fill="none" xmlns="http://www.w3.org/2000/svg">
<path d="M18.1826 5.19182L13.0544 1.06729C11.2841 -0.355764 8.7159 -0.355764 6.94564 1.06729L1.81744 5.19182C0.662567 6.12034 0 7.50234 0 8.98388V15.1317C0 17.8157 2.18564 20 4.8718 20H7.69231V15.1317C7.69231 13.8615 8.72718 12.8273 10 12.8273C11.2728 12.8273 12.3077 13.8615 12.3077 15.1317V20H15.1282C17.8144 20 20 17.8167 20 15.1317V8.98388C20 7.50234 19.3374 6.12034 18.1826 5.19182ZM18.4615 15.1317C18.4615 16.9672 16.9662 18.461 15.1282 18.461H13.8462V15.1317C13.8462 13.013 12.121 11.2882 10 11.2882C7.87897 11.2882 6.15385 13.013 6.15385 15.1317V18.461H4.8718C3.03385 18.461 1.53846 16.9672 1.53846 15.1317V8.98388C1.53846 7.97122 1.99077 7.0263 2.78051 6.39121L7.90872 2.26669C9.12102 1.29302 10.879 1.29302 12.0903 2.26669L17.2185 6.39121C18.0082 7.0263 18.4605 7.97122 18.4605 8.98388V15.1317H18.4615Z" fill="currentColor"/>
</svg>
