<svg width="100%" height="100%" viewBox="0 0 36 36" fill="none" xmlns="http://www.w3.org/2000/svg">
<path d="M16.4391 18.5201V24.8415C16.4391 25.4465 16.9301 25.9375 17.535 25.9375C18.14 25.9375 18.631 25.4465 18.631 24.8415V18.5201C22.3396 17.9823 25.2066 14.8144 25.2066 10.9596C25.2066 6.72933 21.7653 3.28809 17.535 3.28809C13.3047 3.28809 9.86345 6.72933 9.86345 10.9596C9.86345 14.8144 12.7304 17.9823 16.4391 18.5201ZM17.535 5.47996C20.5569 5.47996 23.0147 7.93778 23.0147 10.9596C23.0147 13.9815 20.5569 16.4393 17.535 16.4393C14.5132 16.4393 12.0553 13.9815 12.0553 10.9596C12.0553 7.93778 14.5132 5.47996 17.535 5.47996ZM28.8597 26.3028C28.8597 29.4269 23.9908 31.7825 17.535 31.7825C11.0792 31.7825 6.21033 29.4269 6.21033 26.3028C6.21033 24.0028 8.7237 22.1208 12.9336 21.2688C13.5312 21.1519 14.1054 21.5318 14.2253 22.125C14.3465 22.7183 13.9622 23.297 13.369 23.4168C10.1089 24.0773 8.4022 25.369 8.4022 26.3028C8.4022 27.6427 11.9603 29.5906 17.535 29.5906C23.1097 29.5906 26.6678 27.6427 26.6678 26.3028C26.6678 25.369 24.9626 24.0773 21.7011 23.4168C21.1078 23.297 20.7249 22.7183 20.8448 22.125C20.9646 21.5318 21.5447 21.1519 22.1365 21.2688C26.3463 22.1208 28.8597 24.0028 28.8597 26.3028Z" fill="currentColor"/>
</svg>
