<svg width="100%" height="100%" viewBox="0 0 20 20" fill="none" xmlns="http://www.w3.org/2000/svg">
<path d="M20 6.92408C20 6.841 19.9867 6.75891 19.96 6.67994L18.8441 3.33133C18.1805 1.33954 16.3231 0 14.2226 0H5.77743C3.67692 0 1.82053 1.33851 1.15591 3.33133L0.0400015 6.67994C0.0133348 6.75891 0 6.841 0 6.92408C0.00102564 7.92716 0.395897 8.83385 1.02564 9.51898V16.1538C1.02564 18.2749 2.75077 20 4.8718 20H8.74562V16.1538C8.74562 15.4472 9.321 14.8718 10.0277 14.8718C10.7343 14.8718 11.3097 15.4472 11.3097 16.1538V20H15.1282C17.2492 20 18.9744 18.2749 18.9744 16.1538V9.51898C19.6041 8.83283 19.999 7.92716 20 6.92408ZM2.61537 3.81748C3.06973 2.45441 4.34051 1.53846 5.77743 1.53846H14.2226C15.6595 1.53846 16.9303 2.45441 17.3846 3.81748L18.4585 7.03901C18.398 8.27696 17.4113 9.23077 16.1641 9.23077C15.1251 9.23077 14.1097 8.57021 13.802 7.69431C13.6943 7.38559 13.4031 7.17949 13.0759 7.17949H13.0728C12.7446 7.18051 12.4533 7.3897 12.3477 7.69944C12.0492 8.57226 11.039 9.23077 9.99793 9.23077C8.95691 9.23077 7.94664 8.57226 7.64818 7.69944C7.54253 7.3897 7.25128 7.18051 6.92308 7.17949H6.92001C6.59386 7.17949 6.30154 7.38559 6.19385 7.69431C5.88616 8.57021 4.87077 9.23077 3.83282 9.23077C2.58564 9.23077 1.59897 8.27696 1.53846 7.03901L2.61537 3.81748ZM15.1282 18.4615H12.8482V16.1538C12.8482 14.5979 11.5825 13.3333 10.0277 13.3333C8.4728 13.3333 7.20716 14.5979 7.20716 16.1538V18.4615H4.8718C3.59897 18.4615 2.5641 17.4267 2.5641 16.1538V10.5344C2.9641 10.6769 3.38768 10.7692 3.83589 10.7692C5.01948 10.7692 6.16305 10.2379 6.91895 9.40818C7.67074 10.2389 8.81231 10.7692 10 10.7692C11.1877 10.7692 12.3293 10.2379 13.0811 9.40818C13.837 10.2389 14.9805 10.7692 16.1641 10.7692C16.6123 10.7692 17.0359 10.6769 17.4359 10.5344V16.1538C17.4359 17.4256 16.401 18.4615 15.1282 18.4615Z" fill="currentColor"/>
</svg>
