<svg width="100%" height="100%" viewBox="0 0 20 18" fill="currentColor" xmlns="http://www.w3.org/2000/svg">
<path d="M5.80933 10.4212C6.37138 10.4212 6.91465 10.3849 7.42875 10.3173V4.68245C6.9147 4.61492 6.37138 4.57861 5.80933 4.57861C2.60012 4.57861 -0.00146484 5.75854 -0.00146484 7.21411V7.78568C-0.00146484 9.2412 2.60012 10.4212 5.80933 10.4212Z" fill="currentColor"/>
<path d="M5.80933 13.3636C6.37138 13.3636 6.91465 13.3272 7.42875 13.2598V11.6081C6.91455 11.6756 6.37153 11.7124 5.80933 11.7124C3.00804 11.7124 0.669948 10.8133 0.120746 9.6167C0.0407661 9.791 -0.00146484 9.97148 -0.00146484 10.1565V10.7281C-0.00146484 12.1836 2.60012 13.3636 5.80933 13.3636Z" fill="currentColor"/>
<path d="M7.42875 14.6788V14.5505C6.91455 14.618 6.37153 14.6548 5.80933 14.6548C3.00804 14.6548 0.669948 13.7557 0.120746 12.5591C0.0407661 12.7333 -0.00146484 12.9138 -0.00146484 13.0988V13.6704C-0.00146484 15.126 2.60012 16.3059 5.80933 16.3059C6.45111 16.3059 7.06839 16.2586 7.64563 16.1715C7.50255 15.8788 7.42875 15.5701 7.42875 15.2504V14.6788Z" fill="currentColor"/>
<path d="M14.1877 0.114746C10.9785 0.114746 8.37695 1.29467 8.37695 2.75025V3.32181C8.37695 4.77738 10.9785 5.95731 14.1877 5.95731C17.3969 5.95731 19.9985 4.77738 19.9985 3.32181V2.75025C19.9985 1.29467 17.3969 0.114746 14.1877 0.114746Z" fill="currentColor"/>
<path d="M14.1877 7.24854C11.3865 7.24854 9.04837 6.34949 8.49916 5.15283C8.41918 5.32708 8.37695 5.50756 8.37695 5.69262V6.26418C8.37695 7.71976 10.9785 8.89969 14.1877 8.89969C17.3969 8.89969 19.9985 7.71976 19.9985 6.26418V5.69262C19.9985 5.50756 19.9563 5.32708 19.8763 5.15283C19.3271 6.34949 16.989 7.24854 14.1877 7.24854Z" fill="currentColor"/>
<path d="M14.1877 10.1909C11.3865 10.1909 9.04837 9.29183 8.49916 8.09521C8.41918 8.26947 8.37695 8.44994 8.37695 8.635V9.20657C8.37695 10.6622 10.9785 11.8421 14.1877 11.8421C17.3969 11.8421 19.9985 10.6622 19.9985 9.20657V8.635C19.9985 8.44994 19.9563 8.26947 19.8763 8.09521C19.3271 9.29188 16.989 10.1909 14.1877 10.1909Z" fill="currentColor"/>
<path d="M14.1877 13.292C11.3865 13.292 9.04837 12.3929 8.49916 11.1963C8.41918 11.3706 8.37695 11.551 8.37695 11.736V12.3076C8.37695 13.7632 10.9785 14.9431 14.1877 14.9431C17.3969 14.9431 19.9985 13.7632 19.9985 12.3076V11.736C19.9985 11.551 19.9563 11.3705 19.8763 11.1963C19.3271 12.3928 16.989 13.292 14.1877 13.292Z" fill="currentColor"/>
<path d="M14.1877 16.2344C11.3865 16.2344 9.04837 15.3353 8.49916 14.1387C8.41918 14.313 8.37695 14.4936 8.37695 14.6785V15.25C8.37695 16.7056 10.9785 17.8855 14.1877 17.8855C17.3969 17.8855 19.9985 16.7056 19.9985 15.25V14.6784C19.9985 14.4934 19.9563 14.3129 19.8763 14.1387C19.3271 15.3353 16.989 16.2344 14.1877 16.2344Z" fill="currentColor"/>
</svg>
