<svg width="100%" height="100%" viewBox="0 0 75 75" fill="none" xmlns="http://www.w3.org/2000/svg">
<path fill-rule="evenodd" clip-rule="evenodd" d="M51.5625 39.8438H39.8438V51.5625C39.8438 52.8516 38.7961 53.9062 37.5 53.9062C36.2039 53.9062 35.1562 52.8516 35.1562 51.5625V39.8438H23.4375C22.1414 39.8438 21.0938 38.7891 21.0938 37.5C21.0938 36.2109 22.1414 35.1562 23.4375 35.1562H35.1562V23.4375C35.1562 22.1484 36.2039 21.0938 37.5 21.0938C38.7961 21.0938 39.8438 22.1484 39.8438 23.4375V35.1562H51.5625C52.8586 35.1562 53.9062 36.2109 53.9062 37.5C53.9062 38.7891 52.8586 39.8438 51.5625 39.8438ZM37.5 0C16.7883 0 0 16.7812 0 37.5C0 58.2188 16.7883 75 37.5 75C58.2117 75 75 58.2188 75 37.5C75 16.7812 58.2117 0 37.5 0Z" fill="black"/>
<path fill-rule="evenodd" clip-rule="evenodd" d="M51.5625 39.8438H39.8438V51.5625C39.8438 52.8516 38.7961 53.9062 37.5 53.9062C36.2039 53.9062 35.1562 52.8516 35.1562 51.5625V39.8438H23.4375C22.1414 39.8438 21.0938 38.7891 21.0938 37.5C21.0938 36.2109 22.1414 35.1562 23.4375 35.1562H35.1562V23.4375C35.1562 22.1484 36.2039 21.0938 37.5 21.0938C38.7961 21.0938 39.8438 22.1484 39.8438 23.4375V35.1562H51.5625C52.8586 35.1562 53.9062 36.2109 53.9062 37.5C53.9062 38.7891 52.8586 39.8438 51.5625 39.8438ZM37.5 0C16.7883 0 0 16.7812 0 37.5C0 58.2188 16.7883 75 37.5 75C58.2117 75 75 58.2188 75 37.5C75 16.7812 58.2117 0 37.5 0Z" fill="white" fill-opacity="0.4"/>
</svg>
