<svg width="100%" height="100%" viewBox="0 0 26 26" fill="none" xmlns="http://www.w3.org/2000/svg">
<g opacity="0.4">
<path d="M15.8588 2.714C12.2378 -0.904668 6.34663 -0.904668 2.72559 2.714C-0.895509 6.33268 -0.895509 12.2206 2.72559 15.8392C6.34663 19.4579 12.2378 19.4579 15.8588 15.8392C19.4799 12.2206 19.4799 6.33268 15.8588 2.714ZM14.5694 14.5507C11.6551 17.4625 6.92927 17.4625 4.01501 14.5501C1.10074 11.6377 1.10074 6.91498 4.01501 4.00319C6.92927 1.09083 11.6546 1.09083 14.5688 4.00319C17.4831 6.91554 17.4837 11.6377 14.5694 14.5507Z" fill="currentColor"/>
<path d="M5.18078 5.7141C3.68902 7.62983 3.56483 10.2657 4.80877 12.3005C4.90415 12.4573 5.10868 12.5061 5.26498 12.4113C5.42073 12.3155 5.47012 12.1116 5.37474 11.9554C4.27379 10.1549 4.38355 7.81482 5.70346 6.12188C5.81657 5.97781 5.79051 5.76956 5.64579 5.65702C5.50173 5.54459 5.29329 5.57009 5.18078 5.7141Z" fill="currentColor"/>
<path d="M25.3342 22.7352L18.5943 16.1742C18.2256 15.8152 17.6369 15.8197 17.2727 16.1831L16.2039 17.2511C15.8403 17.6145 15.8363 18.2029 16.1961 18.5707L22.7609 25.3062C23.4899 26.1859 24.5669 26.238 25.399 25.4059C26.2322 24.5749 26.2139 23.4637 25.3342 22.7352Z" fill="currentColor"/>
</g>
</svg>
