<svg width="100%" height="100%" viewBox="0 0 30 30" fill="none" xmlns="http://www.w3.org/2000/svg">
<path d="M15 19.6875C14.0729 19.6875 13.1666 19.4126 12.3958 18.8975C11.6249 18.3824 11.0241 17.6504 10.6693 16.7938C10.3145 15.9373 10.2217 14.9948 10.4026 14.0855C10.5834 13.1762 11.0299 12.341 11.6854 11.6854C12.341 11.0299 13.1762 10.5834 14.0855 10.4026C14.9948 10.2217 15.9373 10.3145 16.7938 10.6693C17.6504 11.0241 18.3824 11.6249 18.8975 12.3958C19.4126 13.1666 19.6875 14.0729 19.6875 15C19.6862 16.2428 19.1919 17.4343 18.3131 18.3131C17.4343 19.1919 16.2428 19.6862 15 19.6875ZM15 12.1875C14.4437 12.1875 13.9 12.3525 13.4375 12.6615C12.9749 12.9705 12.6145 13.4098 12.4016 13.9237C12.1887 14.4376 12.133 15.0031 12.2415 15.5487C12.3501 16.0943 12.6179 16.5954 13.0113 16.9887C13.4046 17.3821 13.9057 17.6499 14.4513 17.7585C14.9969 17.867 15.5624 17.8113 16.0763 17.5984C16.5902 17.3855 17.0295 17.0251 17.3385 16.5625C17.6475 16.1 17.8125 15.5563 17.8125 15C17.8118 14.2543 17.5153 13.5393 16.988 13.012C16.4607 12.4847 15.7457 12.1882 15 12.1875ZM15.625 27.1875H14.375C13.6293 27.1868 12.9143 26.8903 12.387 26.363C11.8597 25.8357 11.5632 25.1207 11.5625 24.375C11.5641 24.2849 11.5388 24.1963 11.4898 24.1206C11.4408 24.0449 11.3704 23.9855 11.2875 23.95H11.2775C11.202 23.9188 11.1189 23.9106 11.0388 23.9266C10.9587 23.9427 10.8852 23.9821 10.8275 24.04C10.296 24.5655 9.5802 24.8623 8.83284 24.8673C8.08548 24.8722 7.36582 24.5847 6.8275 24.0662L5.9525 23.1838C5.69054 22.9224 5.48271 22.6119 5.34091 22.2701C5.19911 21.9283 5.12612 21.5619 5.12612 21.1919C5.12612 20.8218 5.19911 20.4554 5.34091 20.1136C5.48271 19.7718 5.69054 19.4614 5.9525 19.2C6.01454 19.1363 6.05668 19.056 6.07377 18.9687C6.09087 18.8815 6.08217 18.7911 6.04875 18.7087C6.01822 18.6308 5.96517 18.5638 5.89638 18.5161C5.82759 18.4685 5.74617 18.4424 5.6625 18.4412C5.29006 18.4449 4.92059 18.3748 4.57538 18.2349C4.23016 18.0951 3.91604 17.8883 3.65111 17.6265C3.38618 17.3648 3.17568 17.0531 3.03175 16.7096C2.88782 16.3661 2.81331 15.9975 2.8125 15.625V14.375C2.81316 13.6293 3.10969 12.9143 3.63699 12.387C4.1643 11.8597 4.87928 11.5632 5.625 11.5625C5.71504 11.5643 5.80356 11.5391 5.8791 11.4901C5.95465 11.441 6.01375 11.3705 6.04875 11.2875V11.2775C6.07967 11.202 6.08762 11.119 6.07161 11.0389C6.0556 10.9589 6.01634 10.8853 5.95875 10.8275C5.69247 10.5677 5.48039 10.2576 5.33478 9.91523C5.18918 9.57287 5.11295 9.20501 5.11051 8.83298C5.10807 8.46095 5.17947 8.09213 5.32056 7.74788C5.46166 7.40363 5.66965 7.0908 5.9325 6.8275L6.81875 5.94125C7.35393 5.4286 8.0664 5.14242 8.8075 5.14242C9.5486 5.14242 10.2611 5.4286 10.7963 5.94125C10.8594 6.00692 10.9407 6.05224 11.0298 6.07139C11.1189 6.09054 11.2117 6.08266 11.2962 6.04875C11.3738 6.01833 11.4404 5.96542 11.4877 5.89681C11.5349 5.8282 11.5605 5.74704 11.5612 5.66375C11.5575 5.29142 11.6274 4.92201 11.767 4.57682C11.9066 4.23162 12.1131 3.91746 12.3746 3.65243C12.6362 3.3874 12.9476 3.17674 13.2909 3.03259C13.6342 2.88843 14.0026 2.81363 14.375 2.8125H15.625C16.3707 2.81316 17.0857 3.10969 17.613 3.63699C18.1403 4.1643 18.4368 4.87928 18.4375 5.625C18.433 5.71297 18.4559 5.80018 18.5029 5.87468C18.5498 5.94919 18.6187 6.00737 18.7 6.04125C18.779 6.07493 18.866 6.08541 18.9508 6.07146C19.0356 6.05752 19.1147 6.01972 19.1788 5.9625C19.4398 5.69489 19.7519 5.48226 20.0964 5.33714C20.441 5.19202 20.8111 5.11734 21.185 5.1175C21.5545 5.11647 21.9205 5.18875 22.2619 5.33014C22.6033 5.47154 22.9132 5.67925 23.1737 5.94125L24.0563 6.81625C24.3174 7.07742 24.5246 7.38746 24.6659 7.72869C24.8073 8.06993 24.88 8.43565 24.88 8.805C24.88 9.17435 24.8073 9.54007 24.6659 9.88131C24.5246 10.2225 24.3174 10.5326 24.0563 10.7938C23.9899 10.8524 23.9434 10.9302 23.923 11.0163C23.9026 11.1025 23.9094 11.1929 23.9425 11.275L23.95 11.2925C23.9804 11.3696 24.0333 11.4358 24.1017 11.4825C24.1701 11.5293 24.2509 11.5546 24.3337 11.555C24.7068 11.5509 25.077 11.6207 25.4229 11.7606C25.7688 11.9004 26.0835 12.1074 26.3489 12.3697C26.6143 12.6319 26.825 12.9442 26.969 13.2884C27.1129 13.6326 27.1872 14.0019 27.1875 14.375V15.625C27.1868 16.3707 26.8903 17.0857 26.363 17.613C25.8357 18.1403 25.1207 18.4368 24.375 18.4375C24.287 18.433 24.1998 18.4559 24.1253 18.5029C24.0508 18.5498 23.9926 18.6187 23.9587 18.7C23.9255 18.7791 23.9153 18.866 23.9292 18.9507C23.9431 19.0354 23.9807 19.1144 24.0375 19.1788C24.3034 19.4389 24.5151 19.7492 24.6603 20.0918C24.8055 20.4343 24.8813 20.8023 24.8832 21.1743C24.8852 21.5463 24.8134 21.9151 24.6718 22.2591C24.5303 22.6032 24.3219 22.9158 24.0588 23.1787L23.1838 24.0613C22.6486 24.5739 21.9361 24.8601 21.195 24.8601C20.4539 24.8601 19.7414 24.5739 19.2062 24.0613C19.1475 23.9951 19.0697 23.9486 18.9836 23.9283C18.8975 23.9079 18.8072 23.9146 18.725 23.9475C18.6455 23.9786 18.5767 24.0322 18.527 24.1016C18.4773 24.1711 18.4488 24.2534 18.445 24.3388C18.4485 24.7114 18.3781 25.081 18.238 25.4264C18.0978 25.7717 17.8907 26.0858 17.6285 26.3507C17.3664 26.6155 17.0543 26.8258 16.7105 26.9694C16.3666 27.1131 15.9977 27.1872 15.625 27.1875ZM12.1138 22.2725C12.5047 22.4601 12.8356 22.7529 13.0694 23.1181C13.3033 23.4833 13.4307 23.9064 13.4375 24.34C13.434 24.4657 13.4556 24.5909 13.501 24.7082C13.5465 24.8254 13.6149 24.9325 13.7021 25.023C13.7894 25.1136 13.8939 25.1858 14.0094 25.2355C14.125 25.2852 14.2492 25.3114 14.375 25.3125H15.625C15.8736 25.3125 16.1121 25.2137 16.2879 25.0379C16.4637 24.8621 16.5625 24.6236 16.5625 24.375C16.5619 23.9131 16.6981 23.4613 16.9539 23.0767C17.2097 22.692 17.5737 22.3918 18 22.2137C18.418 22.0405 18.8781 21.9955 19.3217 22.0845C19.7654 22.1736 20.1725 22.3926 20.4912 22.7137C20.5774 22.8058 20.6812 22.8797 20.7964 22.931C20.9116 22.9823 21.0359 23.01 21.162 23.0124C21.288 23.0149 21.4133 22.992 21.5304 22.9452C21.6475 22.8984 21.7541 22.8287 21.8438 22.74L22.7262 21.865C22.9023 21.6887 23.0013 21.4498 23.0013 21.2006C23.0013 20.9515 22.9023 20.7125 22.7262 20.5363C22.4052 20.213 22.1854 19.8032 22.0937 19.3569C22.002 18.9107 22.0424 18.4474 22.21 18.0237V18.0062L22.2188 17.985C22.3906 17.566 22.6835 17.2078 23.0601 16.9562C23.4366 16.7045 23.8796 16.571 24.3325 16.5725C24.4581 16.5758 24.583 16.5541 24.7001 16.5086C24.8171 16.463 24.9239 16.3946 25.0143 16.3073C25.1046 16.22 25.1766 16.1156 25.2261 16.0002C25.2756 15.8847 25.3015 15.7606 25.3025 15.635V14.385C25.3025 14.1364 25.2037 13.8979 25.0279 13.7221C24.8521 13.5463 24.6136 13.4475 24.365 13.4475C23.9068 13.4532 23.4574 13.3217 23.0745 13.07C22.6916 12.8183 22.3927 12.4579 22.2163 12.035C22.0347 11.6117 21.9846 11.1436 22.0727 10.6915C22.1608 10.2393 22.3828 9.8242 22.71 9.5C22.8042 9.41131 22.8795 9.30445 22.9313 9.18585C22.9831 9.06726 23.0103 8.9394 23.0112 8.81C23.0116 8.68685 22.9875 8.56487 22.9403 8.45113C22.8931 8.33739 22.8237 8.23418 22.7362 8.1475L21.8612 7.265C21.774 7.178 21.6705 7.10904 21.5566 7.06207C21.4427 7.01509 21.3207 6.99103 21.1975 6.99125C21.074 6.99066 20.9517 7.01481 20.8377 7.06225C20.7237 7.1097 20.6203 7.17948 20.5338 7.2675C20.2102 7.588 19.8004 7.80745 19.3542 7.89912C18.9081 7.99078 18.445 7.9507 18.0212 7.78375L18 7.78L17.9788 7.77125C17.5597 7.5994 17.2015 7.30648 16.9499 6.92994C16.6983 6.5534 16.5647 6.11037 16.5662 5.6575C16.5696 5.53194 16.5478 5.40698 16.5023 5.28992C16.4568 5.17286 16.3884 5.06605 16.3011 4.97574C16.2138 4.88542 16.1094 4.81342 15.9939 4.76392C15.8785 4.71443 15.7543 4.68845 15.6287 4.6875H14.3787C14.1301 4.6875 13.8917 4.78627 13.7158 4.96209C13.54 5.1379 13.4412 5.37636 13.4412 5.625C13.4467 6.08639 13.313 6.53872 13.0578 6.92309C12.8025 7.30746 12.4374 7.60606 12.01 7.78C11.5895 7.95245 11.1277 7.99794 10.6816 7.91086C10.2356 7.82378 9.82477 7.60794 9.5 7.29C9.41368 7.19862 9.31002 7.12535 9.19507 7.07447C9.08012 7.0236 8.95619 6.99614 8.83051 6.9937C8.70483 6.99125 8.57992 7.01387 8.46308 7.06024C8.34624 7.10661 8.23981 7.17579 8.15 7.26375L7.26375 8.15C7.17663 8.23706 7.10752 8.34044 7.06037 8.45422C7.01322 8.568 6.98895 8.68996 6.98895 8.81312C6.98895 8.93629 7.01322 9.05825 7.06037 9.17203C7.10752 9.28581 7.17663 9.38919 7.26375 9.47625C7.59319 9.79646 7.81906 10.2081 7.9122 10.658C8.00534 11.1078 7.96147 11.5753 7.78625 12C7.76916 12.0428 7.74954 12.0845 7.7275 12.125C7.53831 12.5138 7.24481 12.8425 6.87974 13.0742C6.51467 13.306 6.09238 13.4317 5.66 13.4375C5.53428 13.434 5.40912 13.4556 5.29185 13.501C5.17457 13.5465 5.06753 13.6149 4.97698 13.7021C4.88644 13.7894 4.8142 13.8939 4.76449 14.0094C4.71479 14.125 4.68861 14.2492 4.6875 14.375V15.625C4.6875 15.8736 4.78627 16.1121 4.96209 16.2879C5.1379 16.4637 5.37636 16.5625 5.625 16.5625C6.08372 16.5566 6.53365 16.6886 6.91652 16.9413C7.2994 17.194 7.59759 17.5559 7.7725 17.98L7.78 17.9963L7.78625 18.0138C7.95387 18.4341 7.99585 18.8941 7.90709 19.3379C7.81834 19.7817 7.60266 20.1902 7.28625 20.5137C7.19405 20.6012 7.12057 20.7064 7.07029 20.8231C7.02001 20.9398 6.99397 21.0654 6.99375 21.1925C6.99281 21.316 7.01654 21.4384 7.06355 21.5526C7.11056 21.6668 7.1799 21.7705 7.2675 21.8575L8.15 22.7325C8.32861 22.9031 8.56611 22.9983 8.81312 22.9983C9.06013 22.9983 9.29764 22.9031 9.47625 22.7325C9.79698 22.4038 10.2088 22.1788 10.6586 22.0863C11.1084 21.9939 11.5756 22.0382 12 22.2137C12.039 22.2312 12.0769 22.2508 12.1138 22.2725Z" fill="currentColor"/>
</svg>
