<svg width="100%" height="100%" viewBox="0 0 24 24" fill="none" xmlns="http://www.w3.org/2000/svg">
<path d="M8.49951 3.75C6.96651 3.75 5.68652 4.82 5.34552 6.25H2.99951C2.58551 6.25 2.24951 6.586 2.24951 7C2.24951 7.414 2.58551 7.75 2.99951 7.75H5.34552C5.68652 9.18 6.96651 10.25 8.49951 10.25C10.2915 10.25 11.7495 8.792 11.7495 7C11.7495 5.208 10.2915 3.75 8.49951 3.75ZM8.49951 8.75C7.53451 8.75 6.74951 7.965 6.74951 7C6.74951 6.035 7.53451 5.25 8.49951 5.25C9.46451 5.25 10.2495 6.035 10.2495 7C10.2495 7.965 9.46451 8.75 8.49951 8.75ZM14.2495 7C14.2495 6.586 14.5855 6.25 14.9995 6.25H20.9995C21.4135 6.25 21.7495 6.586 21.7495 7C21.7495 7.414 21.4135 7.75 20.9995 7.75H14.9995C14.5855 7.75 14.2495 7.414 14.2495 7ZM20.9995 16.25H18.6535C18.3125 14.82 17.0325 13.75 15.4995 13.75C13.7075 13.75 12.2495 15.208 12.2495 17C12.2495 18.792 13.7075 20.25 15.4995 20.25C17.0325 20.25 18.3125 19.18 18.6535 17.75H20.9995C21.4135 17.75 21.7495 17.414 21.7495 17C21.7495 16.586 21.4135 16.25 20.9995 16.25ZM15.4995 18.75C14.5345 18.75 13.7495 17.965 13.7495 17C13.7495 16.035 14.5345 15.25 15.4995 15.25C16.4645 15.25 17.2495 16.035 17.2495 17C17.2495 17.965 16.4645 18.75 15.4995 18.75ZM9.74951 17C9.74951 17.414 9.41351 17.75 8.99951 17.75H2.99951C2.58551 17.75 2.24951 17.414 2.24951 17C2.24951 16.586 2.58551 16.25 2.99951 16.25H8.99951C9.41351 16.25 9.74951 16.586 9.74951 17Z" fill="currentColor"/>
</svg>
