<svg width="100%" height="100%" viewBox="0 0 20 20" fill="none" xmlns="http://www.w3.org/2000/svg">
<path d="M2.23741 8.88796C7.06923 6.63001 10.2912 5.14143 11.9033 4.42222C16.5063 2.36873 17.4627 2.01202 18.0861 2.00011C18.2232 1.99765 18.5298 2.0341 18.7284 2.20693C18.8961 2.35287 18.9422 2.55001 18.9643 2.68837C18.9864 2.82673 19.0139 3.14193 18.992 3.38822C18.7426 6.19928 17.6633 13.021 17.1142 16.1694C16.8818 17.5017 16.4244 17.9484 15.9815 17.9921C15.0189 18.0871 14.288 17.3098 13.3558 16.6543C11.897 15.6287 11.0729 14.9902 9.65691 13.9894C8.02048 12.8327 9.08131 12.197 10.0139 11.158C10.258 10.8861 14.4988 6.74876 14.5809 6.37343C14.5912 6.32649 14.6007 6.15151 14.5038 6.05912C14.4069 5.96673 14.2639 5.99833 14.1606 6.02345C14.0143 6.05907 11.6839 7.71119 7.16938 10.9798C6.5079 11.467 5.90875 11.7044 5.37193 11.692C4.78013 11.6782 3.64175 11.3331 2.79548 11.038C1.75749 10.6761 0.932524 10.4848 1.00436 9.87015C1.04178 9.55002 1.45279 9.22262 2.23741 8.88796Z" fill="currentColor"/>
</svg>
