<svg width="100%" height="100%" viewBox="0 0 26 26" fill="none" xmlns="http://www.w3.org/2000/svg">
<path d="M17.4125 9.91254L14.325 13L17.4125 16.0875C17.7788 16.4537 17.7788 17.0475 17.4125 17.4138C17.23 17.5963 16.99 17.6887 16.75 17.6887C16.51 17.6887 16.27 17.5975 16.0875 17.4138L13 14.3262L9.91254 17.4138C9.73004 17.5963 9.49 17.6887 9.25 17.6887C9.01 17.6887 8.76996 17.5975 8.58746 17.4138C8.22121 17.0475 8.22121 16.4537 8.58746 16.0875L11.675 13L8.58746 9.91254C8.22121 9.54629 8.22121 8.95249 8.58746 8.58624C8.95371 8.21999 9.54751 8.21999 9.91376 8.58624L13.0012 11.6738L16.0888 8.58624C16.455 8.21999 17.0487 8.21999 17.415 8.58624C17.7812 8.95249 17.7788 9.54629 17.4125 9.91254ZM25.1875 9.25V16.75C25.1875 21.4025 21.4025 25.1875 16.75 25.1875H9.25C4.5975 25.1875 0.8125 21.4025 0.8125 16.75V9.25C0.8125 4.5975 4.5975 0.8125 9.25 0.8125H16.75C21.4025 0.8125 25.1875 4.5975 25.1875 9.25ZM23.3125 9.25C23.3125 5.63125 20.3688 2.6875 16.75 2.6875H9.25C5.63125 2.6875 2.6875 5.63125 2.6875 9.25V16.75C2.6875 20.3688 5.63125 23.3125 9.25 23.3125H16.75C20.3688 23.3125 23.3125 20.3688 23.3125 16.75V9.25Z" fill="currentColor"/>
</svg>
