<svg width="44" height="44" viewBox="0 0 44 44" fill="none" xmlns="http://www.w3.org/2000/svg">
<path opacity="0.5" d="M31.1667 16.5034C35.1542 16.5256 37.3137 16.7024 38.7225 18.1112C40.3334 19.7221 40.3334 22.3148 40.3334 27.5002V29.3335C40.3334 34.5189 40.3334 37.1118 38.7225 38.7226C37.1115 40.3335 34.5188 40.3335 29.3334 40.3335H14.6667C9.48129 40.3335 6.88857 40.3335 5.27766 38.7226C3.66675 37.1118 3.66675 34.5189 3.66675 29.3335V27.5002C3.66675 22.3148 3.66675 19.7221 5.27766 18.1111C6.68636 16.7024 8.84586 16.5256 12.8334 16.5034" stroke="white" stroke-opacity="0.4" stroke-width="2.75" stroke-linecap="round"/>
<path d="M22.0007 27.4993V3.66602M22.0007 3.66602L27.5007 10.0827M22.0007 3.66602L16.5007 10.0827" stroke="white" stroke-opacity="0.4" stroke-width="2.75" stroke-linecap="round" stroke-linejoin="round"/>
</svg>
