<svg width="100%" height="100%" viewBox="0 0 30 30" fill="none" xmlns="http://www.w3.org/2000/svg">
<path d="M15 15.9375C18.2737 15.9375 20.9375 13.2738 20.9375 10C20.9375 6.72625 18.2737 4.0625 15 4.0625C11.7262 4.0625 9.0625 6.72625 9.0625 10C9.0625 13.2738 11.7262 15.9375 15 15.9375ZM15 5.9375C17.24 5.9375 19.0625 7.76 19.0625 10C19.0625 12.24 17.24 14.0625 15 14.0625C12.76 14.0625 10.9375 12.24 10.9375 10C10.9375 7.76 12.76 5.9375 15 5.9375ZM23.4375 21.75V22.8325C23.4375 23.8662 23.0588 24.8575 22.3725 25.6238C22.1888 25.8313 21.9312 25.9363 21.6737 25.9363C21.45 25.9363 21.2275 25.8575 21.0487 25.6975C20.6625 25.3525 20.63 24.76 20.975 24.3738C21.3525 23.9513 21.5613 23.4037 21.5613 22.8325V21.75C21.5613 20.1888 20.5263 18.8388 19.045 18.4676C18.8025 18.4063 18.55 18.44 18.3437 18.5562C16.2662 19.7137 13.7213 19.7087 11.66 18.5612C11.4438 18.4387 11.1913 18.4074 10.9525 18.4662C9.47003 18.8387 8.43498 20.1888 8.43498 21.75V22.8325C8.43498 23.4037 8.64372 23.9513 9.02122 24.3738C9.36623 24.76 9.33378 25.3525 8.94753 25.6975C8.56252 26.0412 7.96875 26.01 7.62375 25.6238C6.9375 24.8575 6.55876 23.865 6.55876 22.8325V21.75C6.55876 19.3288 8.17623 17.2312 10.4925 16.6475C11.1925 16.47 11.9563 16.5712 12.5775 16.9275C14.0663 17.755 15.9162 17.76 17.4225 16.9225C18.035 16.5712 18.7962 16.4687 19.5 16.6487C21.82 17.2312 23.4375 19.3288 23.4375 21.75ZM21.6163 4.90128C21.7888 4.41378 22.3237 4.15749 22.8125 4.32999C24.6813 4.98999 25.9375 6.76625 25.9375 8.75C25.9375 10.0825 25.3675 11.3551 24.375 12.2438C24.195 12.4038 23.9725 12.4825 23.75 12.4825C23.4925 12.4825 23.2362 12.3775 23.0512 12.17C22.7062 11.7837 22.7388 11.1913 23.125 10.8463C23.7212 10.3138 24.0625 9.55 24.0625 8.75C24.0625 7.56 23.3088 6.49381 22.1875 6.09756C21.6987 5.92506 21.4438 5.38878 21.6163 4.90128ZM27.1875 18.5413V19.4438C27.1875 19.9613 26.7675 20.3813 26.25 20.3813C25.7325 20.3813 25.3125 19.9613 25.3125 19.4438V18.5413C25.3125 17.3125 24.4987 16.25 23.3337 15.9575C22.8325 15.8312 22.5263 15.3224 22.6525 14.8199C22.78 14.3174 23.2912 14.0138 23.79 14.1388C25.7912 14.6413 27.1875 16.4513 27.1875 18.5413ZM5.625 12.7988C4.6325 11.91 4.0625 10.6375 4.0625 9.30496C4.0625 7.32121 5.31875 5.54495 7.1875 4.88495C7.68 4.71245 8.21121 4.96874 8.38371 5.45624C8.55621 5.94499 8.30125 6.48003 7.8125 6.65253C6.69125 7.04878 5.9375 8.11496 5.9375 9.30496C5.9375 10.1037 6.27875 10.8675 6.875 11.4012C7.26125 11.7462 7.29378 12.3388 6.94878 12.7251C6.76503 12.9326 6.5075 13.0376 6.25 13.0376C6.0275 13.0376 5.80375 12.9588 5.625 12.7988ZM6.66626 16.5125C5.50126 16.805 4.6875 17.8675 4.6875 19.0962V20C4.6875 20.5175 4.2675 20.9375 3.75 20.9375C3.2325 20.9375 2.8125 20.5175 2.8125 20V19.0974C2.8125 17.0074 4.21002 15.1975 6.21002 14.695C6.71127 14.5725 7.22124 14.8738 7.34749 15.3763C7.47374 15.8763 7.16876 16.3862 6.66626 16.5125Z" fill="currentColor"/>
</svg>
